/* XPM */
static char * image_name[]={
"32 32 52 2",
"  	c #000000",
". 	c #030303",
"X 	c #050505",
"o 	c #080808",
"O 	c #0F0F0F",
"+ 	c #171717",
"@ 	c #474747",
"# 	c #292929",
"$ 	c #6B3939",
"% 	c #A52A2A",
"& 	c #8E2323",
"* 	c #9C9C9C",
"= 	c #DBDBDB",
"- 	c #FAFAFA",
"; 	c #CCCCCC",
": 	c #383838",
"> 	c #ABABAB",
", 	c #787878",
"< 	c #EBEBEB",
"1 	c #575757",
"2 	c #1F1F1F",
"3 	c #404040",
"4 	c #4F4F4F",
"5 	c #303030",
"6 	c #707070",
"7 	c #121212",
"8 	c #E0E0E0",
"9 	c #D4D4D4",
"0 	c #616161",
"q 	c #828282",
"w 	c #B3B3B3",
"e 	c #141414",
"r 	c #A3A3A3",
"t 	c #F2F2F2",
"y 	c #525252",
"u 	c #1A1A1A",
"i 	c #1C1C1C",
"p 	c #242424",
"a 	c #8A8A8A",
"s 	c #262626",
"d 	c #2E2E2E",
"f 	c #2B2B2B",
"g 	c #9E9E9E",
"h 	c #BABABA",
"j 	c #949494",
"k 	c #6B6B6B",
"l 	c #696969",
"z 	c #545454",
"x 	c #E3E3E3",
"c 	c #00562D",
"v 	c #4E125D",
"b 	c #2F2F64",
"                                                                ",
"                                                                ",
"                                                                ",
"                                                                ",
". X . o O O o . o o o O O o X X X . o   X X X + @ X X X + @ # X ",
"o o o $ % % $ o o o & % % $ o # * = - ; : o o @ - o o o > ; + o ",
"o o o & % % % o o O % % % $ o # , + o * < o o @ - o o , < : o o ",
"o o o & % & % $ o $ % & % $ o o o o o + - @ o @ - o 1 - : o o o ",
"O O O & % $ % $ O & % $ % $ O O O O O 2 - 3 O 4 - 5 < 6 O O O O ",
"O O O & % $ % & 7 % & $ % & O O O O O 6 8 O O 4 - 9 - 3 O O O O ",
"O O O % % + & % $ % $ $ % & O O O O 5 < 0 O O 4 - q w 9 O O O O ",
"+ + + % % e $ % & % + $ % & e + + 2 9 r + + e 4 - + 2 t q + e + ",
"+ + + % % + $ % % & + $ % & + + # 9 r + + + + y - + + 0 - @ + + ",
"+ + u % % + i % % $ + $ % & + # 9 r + + + + + 1 - + + + w 9 + + ",
"2 2 $ % % 2 i $ & p 2 $ % % i w - - - - - a 2 1 - 2 u i : t a 2 ",
"2 2 2 2 2 2 2 2 2 2 2 2 2 2 2 2 2 2 2 2 2 2 2 2 2 2 2 2 2 2 2 2 ",
"2 2 2 2 2 2 2 2 2 2 2 2 2 2 2 2 2 2 2 2 2 2 2 2 2 2 2 2 2 2 2 2 ",
"p # # # # # # # s s # s # # s # # # s # # # s s # # s # s # # # ",
"# # # # # # # # # # # # # # # # # # # # # # # # # # # # # # # # ",
"# # # # # # # # # # # # # # # # # # # # # # # # # # # # # # # # ",
"5 5 d d 5 5 9 * f 5 d d d f 5 5 d f @ t 6 @ t 6 f 9 * d 5 f # f ",
"5 5 5 5 5 5 g q 5 5 5 5 5 5 5 5 5 5 3 h 1 3 h 1 5 g q 5 5 5 5 5 ",
"5 5 5 5 5 5 5 5 5 5 5 5 5 5 5 5 5 5 5 5 5 5 5 5 5 5 5 5 5 5 5 5 ",
"5 5 5 5 5 5 5 5 5 5 5 5 5 5 5 5 5 5 5 5 5 5 5 5 5 5 5 5 5 5 5 5 ",
": : : : : : : : : : : : : : : : : : : : : : : : : : : : : : : : ",
": : : : : : w j : : : : : : : : : : @ ; k @ ; l : w j : : : : : ",
": : : : : : = * : : : : : : : : : : z x , y x , : = * : : : : : ",
"c : : $ v : c b c : b $ : $ : : $ $ : v $ v : : : : : : : c c b ",
"3 3 3 3 3 3 3 3 3 3 3 3 3 3 3 3 3 3 3 3 3 3 3 3 3 3 3 3 3 3 3 3 ",
"3 3 3 3 3 3 3 3 3 3 3 3 3 3 3 3 3 3 3 3 3 3 3 3 3 3 3 3 3 3 3 3 ",
"3 3 3 3 3 3 3 3 3 3 3 3 3 3 3 3 3 3 3 3 3 3 3 3 3 3 3 3 3 3 3 3 ",
"3 3 3 3 3 3 3 3 3 3 3 3 3 3 3 3 3 3 3 3 3 3 3 3 3 3 3 3 3 3 3 3 "
};
